<svg width="34" height="34" viewBox="0 0 34 34" fill="none" xmlns="http://www.w3.org/2000/svg">
<g style="mix-blend-mode:soft-light">
<path fill-rule="evenodd" clip-rule="evenodd" d="M1.82468 17C1.82468 8.60291 8.63146 1.79613 17.0286 1.79613C25.4257 1.79613 32.2325 8.60291 32.2325 17C32.2325 25.3971 25.4257 32.2039 17.0286 32.2039C8.63146 32.2039 1.82468 25.3971 1.82468 17ZM17.0286 4.83691C13.8027 4.83691 10.709 6.11837 8.42795 8.3994C6.14692 10.6804 4.86546 13.7742 4.86546 17C4.86546 20.2259 6.14692 23.3196 8.42795 25.6006C10.709 27.8817 13.8027 29.1631 17.0286 29.1631C20.2544 29.1631 23.3482 27.8817 25.6292 25.6006C27.9102 23.3196 29.1917 20.2259 29.1917 17C29.1917 13.7742 27.9102 10.6804 25.6292 8.3994C23.3482 6.11837 20.2544 4.83691 17.0286 4.83691Z" fill="white"/>
<path fill-rule="evenodd" clip-rule="evenodd" d="M18.5489 9.39808C18.5489 8.99484 18.3887 8.60813 18.1036 8.323C17.8185 8.03787 17.4318 7.87769 17.0285 7.87769C16.6253 7.87769 16.2386 8.03787 15.9534 8.323C15.6683 8.60813 15.5081 8.99484 15.5081 9.39808V15.4796H9.42658C9.02335 15.4796 8.63663 15.6398 8.3515 15.9249C8.06637 16.2101 7.90619 16.5968 7.90619 17C7.90619 17.4033 8.06637 17.79 8.3515 18.0751C8.63663 18.3602 9.02335 18.5204 9.42658 18.5204H15.5081V24.602C15.5081 25.0052 15.6683 25.3919 15.9534 25.6771C16.2386 25.9622 16.6253 26.1224 17.0285 26.1224C17.4318 26.1224 17.8185 25.9622 18.1036 25.6771C18.3887 25.3919 18.5489 25.0052 18.5489 24.602V18.5204H24.6305C25.0337 18.5204 25.4204 18.3602 25.7056 18.0751C25.9907 17.79 26.1509 17.4033 26.1509 17C26.1509 16.5968 25.9907 16.2101 25.7056 15.9249C25.4204 15.6398 25.0337 15.4796 24.6305 15.4796H18.5489V9.39808Z" fill="white"/>
</g>
</svg>
