<svg width="128" height="128" viewBox="0 0 128 128" fill="none"
  xmlns="http://www.w3.org/2000/svg">
  <g clip-path="url(#clip0_1_2)">
    <rect width="128" height="128" rx="20" fill="url(#paint0_radial_1_2)"/>
    <g style="mix-blend-mode:soft-light" opacity="1">
      <path d="M64.25 6.91669C62.504 6.91669 60.8295 7.61029 59.5949 8.8449C58.3603 10.0795 57.6667 11.754 57.6667 13.5C57.6667 15.246 58.3603 16.9205 59.5949 18.1551C60.8295 19.3898 62.504 20.0834 64.25 20.0834C65.996 20.0834 67.6705 19.3898 68.9051 18.1551C70.1397 16.9205 70.8333 15.246 70.8333 13.5C70.8333 11.754 70.1397 10.0795 68.9051 8.8449C67.6705 7.61029 65.996 6.91669 64.25 6.91669ZM45.6192 6.91669C46.9793 3.06193 49.5016 -0.276042 52.8384 -2.63712C56.1753 -4.99819 60.1623 -6.26611 64.25 -6.26611C68.3377 -6.26611 72.3247 -4.99819 75.6615 -2.63712C78.9984 -0.276042 81.5207 3.06193 82.8808 6.91669H130.083C131.829 6.91669 133.504 7.61029 134.738 8.8449C135.973 10.0795 136.667 11.754 136.667 13.5C136.667 15.246 135.973 16.9205 134.738 18.1551C133.504 19.3898 131.829 20.0834 130.083 20.0834H82.8808C81.5207 23.9381 78.9984 27.2761 75.6615 29.6372C72.3247 31.9982 68.3377 33.2662 64.25 33.2662C60.1623 33.2662 56.1753 31.9982 52.8384 29.6372C49.5016 27.2761 46.9793 23.9381 45.6192 20.0834H37.9167C36.1707 20.0834 34.4962 19.3898 33.2615 18.1551C32.0269 16.9205 31.3333 15.246 31.3333 13.5C31.3333 11.754 32.0269 10.0795 33.2615 8.8449C34.4962 7.61029 36.1707 6.91669 37.9167 6.91669H45.6192ZM103.75 46.4167C102.004 46.4167 100.329 47.1103 99.0949 48.3449C97.8603 49.5795 97.1667 51.254 97.1667 53C97.1667 54.746 97.8603 56.4205 99.0949 57.6551C100.329 58.8898 102.004 59.5834 103.75 59.5834C105.496 59.5834 107.171 58.8898 108.405 57.6551C109.64 56.4205 110.333 54.746 110.333 53C110.333 51.254 109.64 49.5795 108.405 48.3449C107.171 47.1103 105.496 46.4167 103.75 46.4167ZM85.1192 46.4167C86.4793 42.5619 89.0016 39.224 92.3384 36.8629C95.6753 34.5018 99.6623 33.2339 103.75 33.2339C107.838 33.2339 111.825 34.5018 115.162 36.8629C118.498 39.224 121.021 42.5619 122.381 46.4167H130.083C131.829 46.4167 133.504 47.1103 134.738 48.3449C135.973 49.5795 136.667 51.254 136.667 53C136.667 54.746 135.973 56.4205 134.738 57.6551C133.504 58.8898 131.829 59.5834 130.083 59.5834H122.381C121.021 63.4381 118.498 66.7761 115.162 69.1372C111.825 71.4982 107.838 72.7662 103.75 72.7662C99.6623 72.7662 95.6753 71.4982 92.3384 69.1372C89.0016 66.7761 86.4793 63.4381 85.1192 59.5834H37.9167C36.1707 59.5834 34.4962 58.8898 33.2615 57.6551C32.0269 56.4205 31.3333 54.746 31.3333 53C31.3333 51.254 32.0269 49.5795 33.2615 48.3449C34.4962 47.1103 36.1707 46.4167 37.9167 46.4167H85.1192ZM64.25 85.9167C62.504 85.9167 60.8295 86.6103 59.5949 87.8449C58.3603 89.0795 57.6667 90.754 57.6667 92.5C57.6667 94.246 58.3603 95.9205 59.5949 97.1551C60.8295 98.3898 62.504 99.0834 64.25 99.0834C65.996 99.0834 67.6705 98.3898 68.9051 97.1551C70.1397 95.9205 70.8333 94.246 70.8333 92.5C70.8333 90.754 70.1397 89.0795 68.9051 87.8449C67.6705 86.6103 65.996 85.9167 64.25 85.9167ZM45.6192 85.9167C46.9793 82.0619 49.5016 78.724 52.8384 76.3629C56.1753 74.0018 60.1623 72.7339 64.25 72.7339C68.3377 72.7339 72.3247 74.0018 75.6615 76.3629C78.9984 78.724 81.5207 82.0619 82.8808 85.9167H130.083C131.829 85.9167 133.504 86.6103 134.738 87.8449C135.973 89.0795 136.667 90.754 136.667 92.5C136.667 94.246 135.973 95.9205 134.738 97.1551C133.504 98.3898 131.829 99.0834 130.083 99.0834H82.8808C81.5207 102.938 78.9984 106.276 75.6615 108.637C72.3247 110.998 68.3377 112.266 64.25 112.266C60.1623 112.266 56.1753 110.998 52.8384 108.637C49.5016 106.276 46.9793 102.938 45.6192 99.0834H37.9167C36.1707 99.0834 34.4962 98.3898 33.2615 97.1551C32.0269 95.9205 31.3333 94.246 31.3333 92.5C31.3333 90.754 32.0269 89.0795 33.2615 87.8449C34.4962 86.6103 36.1707 85.9167 37.9167 85.9167H45.6192Z" fill="white"/>
    </g>
    <path fill-rule="evenodd" clip-rule="evenodd" d="M103 39.6176C103 37.3687 102.513 35.1464 101.574 33.1031C100.634 31.0597 99.2641 29.2437 97.5572 27.7794C95.8503 26.3151 93.847 25.2372 91.6845 24.6195C89.522 24.0019 87.2516 23.8591 85.0288 24.2009L57.7288 28.4012C54.0453 28.9677 50.6864 30.8341 48.2598 33.6627C45.8333 36.4912 44.4996 40.095 44.5 43.8218V77.9975C41.8278 76.7299 38.8162 76.3646 35.9184 76.9565C33.0207 77.5483 30.3935 79.0654 28.4324 81.2792C26.4713 83.4931 25.2822 86.2841 25.0443 89.2321C24.8063 92.1801 25.5323 95.1256 27.1129 97.6254C28.6935 100.125 31.0433 102.044 33.8086 103.093C36.574 104.142 39.6052 104.264 42.4461 103.442C45.287 102.619 47.7839 100.896 49.5611 98.5323C51.3382 96.1681 52.2994 93.2908 52.3 90.3332V43.8218C52.2989 41.9577 52.9653 40.1549 54.1786 38.7398C55.392 37.3247 57.072 36.3909 58.9144 36.1076L86.2144 31.9073C87.3263 31.7363 88.462 31.8078 89.5437 32.117C90.6253 32.4262 91.6273 32.9657 92.4808 33.6985C93.3344 34.4312 94.0193 35.34 94.4887 36.3624C94.958 37.3847 95.2007 38.4965 95.2 39.6215V66.2975C92.5278 65.0299 89.5162 64.6646 86.6184 65.2565C83.7207 65.8483 81.0935 67.3654 79.1324 69.5792C77.1712 71.7931 75.9822 74.5841 75.7443 77.5321C75.5063 80.4801 76.2323 83.4256 77.8129 85.9254C79.3935 88.4252 81.7433 90.344 84.5086 91.393C87.2739 92.4419 90.3052 92.5644 93.1461 91.7419C95.987 90.9194 98.4839 89.1964 100.261 86.8323C102.038 84.4682 102.999 81.5908 103 78.6332V39.6176ZM95.2 78.6332C95.2 77.0817 94.5837 75.5937 93.4866 74.4966C92.3895 73.3995 90.9015 72.7832 89.35 72.7832C87.7985 72.7832 86.3105 73.3995 85.2134 74.4966C84.1163 75.5937 83.5 77.0817 83.5 78.6332C83.5 80.1847 84.1163 81.6727 85.2134 82.7698C86.3105 83.8668 87.7985 84.4832 89.35 84.4832C90.9015 84.4832 92.3895 83.8668 93.4866 82.7698C94.5837 81.6727 95.2 80.1847 95.2 78.6332ZM44.5 90.3332C44.5 89.5649 44.3487 88.8042 44.0547 88.0945C43.7607 87.3847 43.3298 86.7398 42.7866 86.1966C42.2434 85.6534 41.5985 85.2225 40.8887 84.9285C40.179 84.6345 39.4182 84.4832 38.65 84.4832C37.8818 84.4832 37.1211 84.6345 36.4113 84.9285C35.7016 85.2225 35.0567 85.6534 34.5134 86.1966C33.9702 86.7398 33.5393 87.3847 33.2453 88.0945C32.9513 88.8042 32.8 89.5649 32.8 90.3332C32.8 91.8847 33.4163 93.3727 34.5134 94.4698C35.6105 95.5668 37.0985 96.1832 38.65 96.1832C40.2015 96.1832 41.6895 95.5668 42.7866 94.4698C43.8837 93.3727 44.5 91.8847 44.5 90.3332Z" fill="white"/>
  </g>
  <defs>
    <radialGradient id="paint0_radial_1_2" cx="0" cy="0" r="1" gradientUnits="userSpaceOnUse" gradientTransform="translate(47.5 38) rotate(79.6111) scale(91.5)">
      <stop stop-color="#222222"/>
      <stop offset="1" stop-color="#111111"/>
    </radialGradient>
    <clipPath id="clip0_1_2">
      <rect width="128" height="128" rx="20" fill="white"/>
    </clipPath>
  </defs>
</svg>
