<svg width="34" height="34" viewBox="0 0 34 34" fill="none" xmlns="http://www.w3.org/2000/svg">
<g style="mix-blend-mode:soft-light">
<path d="M11.5173 15.6229C11.1521 15.6229 10.8018 15.768 10.5435 16.0262C10.2853 16.2845 10.1402 16.6348 10.1402 17C10.1402 17.3653 10.2853 17.7156 10.5435 17.9738C10.8018 18.2321 11.1521 18.3772 11.5173 18.3772H22.5346C22.8999 18.3772 23.2502 18.2321 23.5085 17.9738C23.7667 17.7156 23.9118 17.3653 23.9118 17C23.9118 16.6348 23.7667 16.2845 23.5085 16.0262C23.2502 15.768 22.8999 15.6229 22.5346 15.6229H11.5173Z" fill="white"/>
<path fill-rule="evenodd" clip-rule="evenodd" d="M32.285 17.0551C32.285 25.4518 25.4778 32.259 17.0811 32.259C8.68437 32.259 1.87717 25.4518 1.87717 17.0551C1.87717 8.65841 8.68437 1.85121 17.0811 1.85121C25.4778 1.85121 32.285 8.65841 32.285 17.0551ZM29.5206 17.0551C29.5206 18.6887 29.1989 20.3063 28.5737 21.8155C27.9486 23.3248 27.0323 24.6961 25.8772 25.8512C24.722 27.0063 23.3507 27.9226 21.8415 28.5478C20.3322 29.1729 18.7146 29.4947 17.0811 29.4947C15.4475 29.4947 13.8299 29.1729 12.3207 28.5478C10.8114 27.9226 9.44009 27.0063 8.28497 25.8512C7.12985 24.6961 6.21356 23.3248 5.58842 21.8155C4.96327 20.3063 4.64151 18.6887 4.64151 17.0551C4.64151 13.7559 5.9521 10.5919 8.28497 8.25902C10.6178 5.92615 13.7819 4.61556 17.0811 4.61556C20.3802 4.61556 23.5443 5.92615 25.8772 8.25902C28.21 10.5919 29.5206 13.7559 29.5206 17.0551Z" fill="white"/>
</g>
</svg>
