<svg width="106" height="120" viewBox="0 0 106 120" fill="none"
  xmlns="http://www.w3.org/2000/svg">
  <path d="M33.25 13.9167C31.504 13.9167 29.8295 14.6103 28.5949 15.8449C27.3603 17.0795 26.6667 18.754 26.6667 20.5C26.6667 22.246 27.3603 23.9205 28.5949 25.1551C29.8295 26.3898 31.504 27.0834 33.25 27.0834C34.996 27.0834 36.6705 26.3898 37.9051 25.1551C39.1397 23.9205 39.8333 22.246 39.8333 20.5C39.8333 18.754 39.1397 17.0795 37.9051 15.8449C36.6705 14.6103 34.996 13.9167 33.25 13.9167ZM14.6192 13.9167C15.9793 10.0619 18.5016 6.72396 21.8384 4.36288C25.1753 2.00181 29.1623 0.733887 33.25 0.733887C37.3377 0.733887 41.3247 2.00181 44.6615 4.36288C47.9984 6.72396 50.5207 10.0619 51.8808 13.9167H99.0833C100.829 13.9167 102.504 14.6103 103.738 15.8449C104.973 17.0795 105.667 18.754 105.667 20.5C105.667 22.246 104.973 23.9205 103.738 25.1551C102.504 26.3898 100.829 27.0834 99.0833 27.0834H51.8808C50.5207 30.9381 47.9984 34.2761 44.6615 36.6372C41.3247 38.9982 37.3377 40.2662 33.25 40.2662C29.1623 40.2662 25.1753 38.9982 21.8384 36.6372C18.5016 34.2761 15.9793 30.9381 14.6192 27.0834H6.91666C5.17065 27.0834 3.49616 26.3898 2.26154 25.1551C1.02693 23.9205 0.333328 22.246 0.333328 20.5C0.333328 18.754 1.02693 17.0795 2.26154 15.8449C3.49616 14.6103 5.17065 13.9167 6.91666 13.9167H14.6192ZM72.75 53.4167C71.004 53.4167 69.3295 54.1103 68.0949 55.3449C66.8603 56.5795 66.1667 58.254 66.1667 60C66.1667 61.746 66.8603 63.4205 68.0949 64.6551C69.3295 65.8898 71.004 66.5834 72.75 66.5834C74.496 66.5834 76.1705 65.8898 77.4051 64.6551C78.6397 63.4205 79.3333 61.746 79.3333 60C79.3333 58.254 78.6397 56.5795 77.4051 55.3449C76.1705 54.1103 74.496 53.4167 72.75 53.4167ZM54.1192 53.4167C55.4793 49.5619 58.0016 46.224 61.3384 43.8629C64.6753 41.5018 68.6623 40.2339 72.75 40.2339C76.8377 40.2339 80.8247 41.5018 84.1615 43.8629C87.4984 46.224 90.0207 49.5619 91.3808 53.4167H99.0833C100.829 53.4167 102.504 54.1103 103.738 55.3449C104.973 56.5795 105.667 58.254 105.667 60C105.667 61.746 104.973 63.4205 103.738 64.6551C102.504 65.8898 100.829 66.5834 99.0833 66.5834H91.3808C90.0207 70.4381 87.4984 73.7761 84.1615 76.1372C80.8247 78.4982 76.8377 79.7662 72.75 79.7662C68.6623 79.7662 64.6753 78.4982 61.3384 76.1372C58.0016 73.7761 55.4793 70.4381 54.1192 66.5834H6.91666C5.17065 66.5834 3.49616 65.8898 2.26154 64.6551C1.02693 63.4205 0.333328 61.746 0.333328 60C0.333328 58.254 1.02693 56.5795 2.26154 55.3449C3.49616 54.1103 5.17065 53.4167 6.91666 53.4167H54.1192ZM33.25 92.9167C31.504 92.9167 29.8295 93.6103 28.5949 94.8449C27.3603 96.0795 26.6667 97.754 26.6667 99.5C26.6667 101.246 27.3603 102.921 28.5949 104.155C29.8295 105.39 31.504 106.083 33.25 106.083C34.996 106.083 36.6705 105.39 37.9051 104.155C39.1397 102.921 39.8333 101.246 39.8333 99.5C39.8333 97.754 39.1397 96.0795 37.9051 94.8449C36.6705 93.6103 34.996 92.9167 33.25 92.9167ZM14.6192 92.9167C15.9793 89.0619 18.5016 85.724 21.8384 83.3629C25.1753 81.0018 29.1623 79.7339 33.25 79.7339C37.3377 79.7339 41.3247 81.0018 44.6615 83.3629C47.9984 85.724 50.5207 89.0619 51.8808 92.9167H99.0833C100.829 92.9167 102.504 93.6103 103.738 94.8449C104.973 96.0795 105.667 97.754 105.667 99.5C105.667 101.246 104.973 102.921 103.738 104.155C102.504 105.39 100.829 106.083 99.0833 106.083H51.8808C50.5207 109.938 47.9984 113.276 44.6615 115.637C41.3247 117.998 37.3377 119.266 33.25 119.266C29.1623 119.266 25.1753 117.998 21.8384 115.637C18.5016 113.276 15.9793 109.938 14.6192 106.083H6.91666C5.17065 106.083 3.49616 105.39 2.26154 104.155C1.02693 102.921 0.333328 101.246 0.333328 99.5C0.333328 97.754 1.02693 96.0795 2.26154 94.8449C3.49616 93.6103 5.17065 92.9167 6.91666 92.9167H14.6192Z" fill="white"/>
</svg>
